<svg width="24" height="24" viewBox="0 0 24 24" fill="none" xmlns="http://www.w3.org/2000/svg">
<path fill-rule="evenodd" clip-rule="evenodd" d="M8.29444 9.82056C8.19843 9.82056 8.12061 9.89839 8.12061 9.99439V19.5699C8.12061 19.6659 8.19844 19.7438 8.29444 19.7438H15.7054C15.8014 19.7438 15.8792 19.6659 15.8792 19.5699V9.99439C15.8792 9.89839 15.8014 9.82056 15.7054 9.82056H8.29444ZM6.12061 9.99439C6.12061 8.79381 7.09387 7.82056 8.29444 7.82056H15.7054C16.906 7.82056 17.8792 8.79381 17.8792 9.99439V19.5699C17.8792 20.7705 16.906 21.7438 15.7054 21.7438H8.29444C7.09387 21.7438 6.12061 20.7705 6.12061 19.5699V9.99439Z" fill="#757575"/>
<path fill-rule="evenodd" clip-rule="evenodd" d="M8 20.5C8.27614 20.5 8.5 20.7239 8.5 21V21.3805C8.5 21.4225 8.51666 21.4628 8.54633 21.4926C8.57585 21.5222 8.61583 21.5389 8.6576 21.5392C8.69985 21.539 8.74034 21.5222 8.77026 21.4924C8.80024 21.4625 8.81719 21.4219 8.81742 21.3796V21C8.81742 20.7239 9.04128 20.5 9.31742 20.5C9.59356 20.5 9.81742 20.7239 9.81742 21V21.3819C9.81659 21.6891 9.69396 21.9835 9.47641 22.2004C9.25886 22.4174 8.96415 22.5392 8.65692 22.5392H8.65556C8.34879 22.5384 8.05488 22.4159 7.83826 22.1987C7.62164 21.9815 7.5 21.6873 7.5 21.3805H8" fill="#757575"/>
<path fill-rule="evenodd" clip-rule="evenodd" d="M14.1779 20.4607C14.454 20.4607 14.6779 20.6846 14.6779 20.9607V21.3403C14.6781 21.3826 14.695 21.423 14.7249 21.4529C14.7547 21.4827 14.7951 21.4996 14.8372 21.4999C14.8791 21.4997 14.9192 21.483 14.9488 21.4534C14.9786 21.4237 14.9953 21.3833 14.9953 21.3412V20.9607C14.9953 20.6846 15.2191 20.4607 15.4953 20.4607C15.7714 20.4607 15.9953 20.6846 15.9953 20.9607V21.3412C15.9953 21.6485 15.8732 21.9432 15.6559 22.1605C15.4386 22.3778 15.1439 22.4999 14.8366 22.4999H14.8352V22.4999C14.5285 22.4991 14.2346 22.3769 14.0178 22.16C13.8009 21.9431 13.6787 21.6492 13.6779 21.3426L13.6779 21.3412H13.6779V20.9607C13.6779 20.6846 13.9017 20.4607 14.1779 20.4607Z" fill="#757575"/>
<path fill-rule="evenodd" clip-rule="evenodd" d="M10 3C10.5523 3 11 3.44772 11 4L11 8C11 8.55228 10.5523 9 10 9C9.44772 9 9 8.55228 9 8L9 4C9 3.44772 9.44772 3 10 3Z" fill="#757575"/>
<path fill-rule="evenodd" clip-rule="evenodd" d="M14 3C14.5523 3 15 3.44772 15 4L15 8C15 8.55229 14.5523 9 14 9C13.4477 9 13 8.55229 13 8L13 4C13 3.44772 13.4477 3 14 3Z" fill="#757575"/>
<path fill-rule="evenodd" clip-rule="evenodd" d="M10.5649 10.9094C11.1172 10.9094 11.5649 11.3571 11.5649 11.9094V17.7965C11.5649 18.3488 11.1172 18.7965 10.5649 18.7965C10.0127 18.7965 9.56494 18.3488 9.56494 17.7965V11.9094C9.56494 11.3571 10.0127 10.9094 10.5649 10.9094Z" fill="#757575"/>
<path fill-rule="evenodd" clip-rule="evenodd" d="M13.4346 10.9094C13.9869 10.9094 14.4346 11.3571 14.4346 11.9094V17.7965C14.4346 18.3488 13.9869 18.7965 13.4346 18.7965C12.8823 18.7965 12.4346 18.3488 12.4346 17.7965V11.9094C12.4346 11.3571 12.8823 10.9094 13.4346 10.9094Z" fill="#757575"/>
<path fill-rule="evenodd" clip-rule="evenodd" d="M9.61829 3.00212C9.61694 3.00249 9.61625 3.00262 9.61625 3.0026L9.61829 3.00212ZM14.3817 3.00212C14.3831 3.00238 14.3838 3.00257 14.3838 3.0026L14.3817 3.00212ZM14.3817 1.99788C14.3831 1.99751 14.3837 1.99738 14.3838 1.9974L14.3817 1.99788ZM9.6183 1.99788C9.61693 1.99762 9.61625 1.99743 9.61625 1.9974L9.6183 1.99788ZM8.71726 1.22032C9.00643 1.06531 9.33714 1 9.64766 1H14.3523C14.6629 1 14.9936 1.06531 15.2827 1.22032C15.5301 1.35292 16 1.7048 16 2.34716V2.65284C16 3.2952 15.5301 3.64708 15.2827 3.77968C14.9936 3.93469 14.6629 4 14.3523 4H9.64766C9.33714 4 9.00643 3.93469 8.71726 3.77968C8.46987 3.64708 8 3.2952 8 2.65284V2.34716C8 1.7048 8.46987 1.35292 8.71726 1.22032Z" fill="#757575"/>
<path d="M16 16H18V20H16V16Z" fill="white"/>
<path d="M12.4166 20.7499H21.5833L17 12.8333L12.4166 20.7499ZM17.4166 19.4999H16.5833V18.6666H17.4166V19.4999ZM17.4166 17.8333H16.5833V16.1666H17.4166V17.8333Z" fill="#FF0000"/>
</svg>
