<svg width="23" height="23" viewBox="0 0 23 23" fill="none" xmlns="http://www.w3.org/2000/svg">
<path fill-rule="evenodd" clip-rule="evenodd" d="M10.9006 8.2146C10.9006 9.73288 9.6806 10.9585 8.15788 10.9585C6.63515 10.9585 5.40597 9.73288 5.40597 8.2146C5.40597 6.69631 6.63515 5.4707 8.15788 5.4707C9.6806 5.4707 10.9006 6.69631 10.9006 8.2146ZM18.239 8.2146C18.239 9.73288 17.019 10.9585 15.4963 10.9585C13.9736 10.9585 12.7444 9.73288 12.7444 8.2146C12.7444 6.69631 13.9736 5.4707 15.4963 5.4707C17.019 5.4707 18.239 6.69631 18.239 8.2146ZM8.15788 12.7878C6.02056 12.7878 1.73676 13.8579 1.73676 15.989V18.2755H14.579V15.989C14.579 13.8579 10.2952 12.7878 8.15788 12.7878ZM14.6065 12.8335C14.9276 12.806 15.2303 12.7878 15.4963 12.7878C17.6336 12.7878 21.9174 13.8579 21.9174 15.989V18.2755H16.4136V15.989C16.4136 14.6353 15.6706 13.6018 14.6065 12.8335Z" fill="white"/>
</svg>
