<svg width="125" height="38" viewBox="0 0 125 38" fill="none" xmlns="http://www.w3.org/2000/svg">
<path fill-rule="evenodd" clip-rule="evenodd" d="M85.8097 0.879248C86.3865 0.312541 87.1757 0.000854492 88.0863 0.000854492C88.9969 0.000854492 89.7861 0.312543 90.3932 0.850915C91.0003 1.41762 91.3038 2.15434 91.3038 2.97607C91.3038 3.79779 91.0003 4.53451 90.3932 5.10122C89.7861 5.66792 88.9969 5.97961 88.0863 5.97961C87.206 5.97961 86.3865 5.66792 85.8097 5.10122C85.233 4.53451 84.9295 3.82613 84.9295 2.97607C84.9295 2.15434 85.233 1.44595 85.8097 0.879248ZM76.1573 10.9099C76.1233 10.8782 76.0777 10.7813 76.0107 10.6391C75.7191 10.0196 75.0229 8.54109 73.122 7.84974C72.2114 7.50972 71.1793 7.42471 70.1169 7.42471C67.0816 7.42471 64.5015 8.44478 62.5285 10.4282C60.5555 12.4117 59.5538 14.9618 59.5538 17.9937C59.5538 21.0255 60.5555 23.5757 62.5589 25.5308C64.5622 27.5143 67.1726 28.506 70.3294 28.506C72.6667 28.506 74.6397 27.8259 76.2788 26.4942V28.0526H81.1961V1.24768H76.1573V10.9099ZM74.67 22.3289C73.638 23.4623 72.2721 24.029 70.5116 24.029C68.751 24.029 67.3548 23.519 66.2924 22.4423C65.1996 21.3372 64.6836 19.8921 64.6836 17.9937C64.6836 16.1519 65.23 14.7068 66.3227 13.5451C67.3851 12.44 68.751 11.9017 70.4508 11.9017C72.1507 11.9017 73.5166 12.4117 74.6397 13.5167C75.7627 14.5935 76.3091 16.0669 76.3091 17.9937C76.2788 19.7221 75.7628 21.1389 74.67 22.3289ZM30.5963 2.97595L25.8915 20.0053L20.7313 2.97595H15.298L10.1379 19.9486L5.46337 2.97595H-0.000305176L7.25425 28.0241H12.7483L17.9691 9.663L23.2203 28.0241H28.7751L36.0296 2.97595H30.5963ZM51.7226 10.3437C51.6923 10.3154 51.6418 10.2471 51.5698 10.1497C51.209 9.66153 50.3068 8.44075 48.6872 7.85019C47.7766 7.51018 46.7445 7.42517 45.6822 7.42517C42.6468 7.42517 40.0667 8.44522 38.0937 10.4287C36.1207 12.4121 35.1191 14.9622 35.1191 17.994C35.1191 21.0259 36.1207 23.576 38.1241 25.5311C40.1274 27.5145 42.7378 28.5062 45.8946 28.5062C48.2319 28.5062 50.8727 26.8911 51.844 25.0494V28.0245H56.7613V7.85019H51.7226V10.3437ZM50.2352 22.3292C49.2032 23.4626 47.8373 24.0293 46.0768 24.0293C44.3162 24.0293 42.92 23.5193 41.8576 22.4426C40.7649 21.3375 40.2488 19.8925 40.2488 17.994C40.2488 16.1523 40.7952 14.7072 41.8879 13.5455C42.9503 12.4404 44.3162 11.9021 46.0161 11.9021C47.7159 11.9021 49.0818 12.4121 50.2049 13.5171C51.328 14.5939 51.8743 16.0673 51.8743 17.994C51.844 19.7225 51.328 21.1392 50.2352 22.3292ZM118.894 10.1498C118.966 10.2471 119.017 10.3154 119.047 10.3437V7.85019H124.086V28.0245H119.169V25.0494C118.197 26.8911 115.556 28.5062 113.219 28.5062C110.062 28.5062 107.452 27.5145 105.449 25.5311C103.445 23.576 102.444 21.0259 102.444 17.994C102.444 14.9622 103.445 12.4121 105.418 10.4287C107.391 8.44522 109.971 7.42517 113.007 7.42517C114.069 7.42517 115.101 7.51018 116.012 7.85019C117.631 8.44075 118.534 9.66153 118.894 10.1498ZM113.401 24.0293C115.162 24.0293 116.528 23.4626 117.56 22.3292C118.653 21.1392 119.169 19.7225 119.199 17.994C119.199 16.0673 118.653 14.5939 117.529 13.5171C116.406 12.4121 115.04 11.9021 113.341 11.9021C111.641 11.9021 110.275 12.4404 109.213 13.5455C108.12 14.7072 107.573 16.1523 107.573 17.994C107.573 19.8925 108.089 21.3375 109.182 22.4426C110.245 23.5193 111.641 24.0293 113.401 24.0293ZM92.0688 9.00086H86.9997V29.2323H92.0688V9.00086ZM94.8249 7.82117H99.894V28.0526H94.8249V7.82117ZM97.4049 0.000854492C96.4943 0.000854492 95.7051 0.312541 95.1284 0.879248C94.5517 1.44595 94.2481 2.15434 94.2481 2.97607C94.2481 3.82613 94.5517 4.53451 95.1284 5.10122C95.7051 5.66792 96.5247 5.97961 97.4049 5.97961C98.3156 5.97961 99.1048 5.66792 99.7118 5.10122C100.319 4.53451 100.622 3.79779 100.622 2.97607C100.622 2.15434 100.319 1.41762 99.7118 0.850915C99.1048 0.312543 98.3156 0.000854492 97.4049 0.000854492ZM92.8821 37.4317C93.4892 37.4884 94.0963 37.5167 94.7034 37.5167C99.4386 37.5167 104.326 35.6183 109.273 31.7647L108.12 30.4613C102.96 34.4565 97.9209 36.2417 93.125 35.7316C86.8417 35.0799 83.1082 30.6597 83.0779 30.603L81.6209 31.6514C81.7727 31.8497 85.8097 36.695 92.8821 37.4317Z" fill="red"/>
</svg>
